<?xml version="1.0" standalone="no"?>
<!DOCTYPE svg PUBLIC "-//W3C//DTD SVG 20010904//EN"
 "http://www.w3.org/TR/2001/REC-SVG-20010904/DTD/svg10.dtd">
<svg version="1.0" xmlns="http://www.w3.org/2000/svg"
 width="512.000000pt" height="512.000000pt" viewBox="0 0 512.000000 512.000000"
 preserveAspectRatio="xMidYMid meet">
<metadata>
Created by potrace 1.14, written by Peter Selinger 2001-2017
</metadata>
<g transform="translate(0.000000,512.000000) scale(0.100000,-0.100000)"
fill="#000000" stroke="none">
<path d="M1273 4944 c-55 -20 -126 -98 -142 -156 -9 -31 -11 -166 -9 -488 3
-491 2 -479 69 -548 61 -63 81 -67 337 -70 l232 -3 0 -80 0 -79 -535 0 -536 0
-22 -24 c-12 -13 -114 -171 -226 -350 l-203 -326 4 -138 c3 -137 4 -140 41
-215 44 -88 102 -145 192 -188 33 -16 66 -29 73 -29 9 0 12 -167 12 -804 l0
-804 -112 -3 c-94 -4 -121 -8 -156 -27 -44 -23 -85 -64 -111 -111 -16 -29 -27
-219 -17 -275 14 -72 -191 -66 2396 -66 2491 0 2376 -2 2394 45 3 9 6 63 6
119 0 134 -16 189 -72 241 -68 64 -82 68 -210 73 l-118 4 0 802 0 801 64 24
c117 44 212 152 241 273 8 35 15 111 15 172 l0 109 -76 121 c-42 66 -80 128
-85 136 -67 109 -190 307 -197 315 -4 6 -19 30 -32 53 -42 75 -17 72 -605 72
l-525 0 0 80 0 80 219 0 c138 0 230 4 252 12 53 18 104 59 136 108 l28 45 3
454 c3 506 2 516 -63 583 -19 20 -52 44 -73 54 -35 18 -90 19 -1292 21 -1095
1 -1260 0 -1297 -13z m2544 -167 c17 -16 18 -50 21 -440 1 -232 0 -432 -3
-444 -13 -56 41 -53 -1289 -51 -1161 3 -1226 4 -1243 21 -17 16 -18 50 -21
435 -1 229 0 427 3 440 3 12 14 31 25 42 20 20 35 20 1255 18 1169 -3 1235 -4
1252 -21z m-617 -1177 l0 -80 -640 0 -640 0 0 80 0 80 640 0 640 0 0 -80z
m-2170 -480 l-120 -240 -220 0 c-121 0 -220 2 -220 5 0 4 124 207 150 245 6 8
40 63 77 123 l66 107 194 0 193 0 -120 -240z m690 233 c0 -3 -39 -111 -87
-240 l-88 -233 -228 0 -227 0 120 240 120 240 195 0 c107 0 195 -3 195 -7z
m506 -30 c-6 -38 -11 -81 -21 -158 -2 -22 -7 -58 -10 -80 -2 -22 -7 -62 -10
-90 -3 -27 -8 -59 -10 -70 -2 -11 -4 -26 -4 -32 -1 -10 -53 -13 -227 -13 -176
0 -225 3 -222 13 2 6 42 114 89 239 l84 228 168 0 169 0 -6 -37z m505 30 c0
-5 2 -17 3 -28 2 -11 6 -49 10 -85 4 -36 9 -76 11 -90 4 -25 11 -75 20 -152 3
-24 8 -60 11 -80 l5 -38 -231 0 -231 0 5 33 c3 17 10 73 16 122 6 50 13 104
15 120 2 17 6 53 10 80 3 28 8 67 11 88 l6 37 169 0 c93 0 169 -3 170 -7z
m582 -226 c48 -129 87 -237 87 -240 0 -4 -101 -7 -225 -7 -207 0 -225 1 -226
18 0 9 -2 26 -4 37 -2 11 -7 43 -10 70 -3 28 -8 66 -11 86 -8 60 -14 112 -19
154 -3 22 -8 57 -11 78 l-5 37 168 0 168 0 88 -233z m597 -7 l120 -240 -227 0
-228 0 -87 233 c-49 129 -88 237 -88 240 0 4 88 7 195 7 l195 0 120 -240z
m593 5 c81 -129 147 -237 147 -240 0 -3 -99 -5 -220 -5 l-220 0 -120 240 -120
240 193 0 193 0 147 -235z m-3625 -482 c-5 -84 -28 -134 -85 -187 -84 -78
-234 -71 -321 15 -48 48 -72 113 -72 196 l0 53 241 0 242 0 -5 -77z m640 0
c-5 -84 -28 -134 -85 -187 -84 -78 -234 -71 -321 15 -48 48 -72 113 -72 196
l0 53 241 0 242 0 -5 -77z m640 0 c-5 -84 -28 -134 -85 -187 -84 -78 -234 -71
-321 15 -48 48 -72 113 -72 196 l0 53 241 0 242 0 -5 -77z m639 0 c-5 -88 -20
-122 -74 -175 -92 -90 -238 -89 -331 3 -48 48 -72 113 -72 196 l0 53 241 0
242 0 -6 -77z m643 25 c0 -107 -35 -177 -112 -228 -120 -78 -281 -32 -344 99
-11 20 -20 67 -22 109 l-4 72 241 0 241 0 0 -52z m640 -7 c0 -32 -5 -73 -12
-92 -57 -169 -256 -221 -388 -102 -56 51 -80 110 -80 200 l0 53 240 0 240 0 0
-59z m637 -18 c-5 -92 -22 -128 -82 -181 -53 -46 -117 -67 -183 -59 -64 8
-104 30 -150 83 -44 49 -62 104 -62 183 l0 51 241 0 242 0 -6 -77z m-3598
-366 c59 -28 76 -31 161 -32 86 0 101 3 162 32 37 17 87 52 112 76 l45 45 47
-45 c26 -25 77 -59 113 -76 59 -28 76 -31 161 -32 86 0 101 3 162 32 37 17 87
52 112 76 l45 45 46 -45 c154 -147 399 -147 551 2 l45 43 45 -45 c25 -24 75
-59 112 -76 60 -28 76 -31 162 -32 86 0 102 3 161 32 36 17 87 51 113 75 l46
45 44 -43 c81 -78 178 -114 295 -110 95 3 187 42 255 109 l46 44 46 -45 c43
-40 152 -102 182 -102 9 0 12 -168 12 -805 l0 -805 -320 0 -319 0 -3 553 c-3
618 0 588 -77 662 -69 67 -27 65 -1124 65 -730 0 -1000 -3 -1029 -12 -46 -13
-119 -75 -145 -121 -17 -30 -18 -74 -21 -589 l-3 -558 -319 0 -320 0 0 805 c0
637 3 805 13 805 29 0 137 61 180 102 l47 44 47 -44 c25 -24 76 -58 112 -75z
m1361 -1077 l0 -560 -480 0 -480 0 0 525 c0 445 2 530 15 555 8 15 20 30 27
33 7 3 217 6 466 6 l452 1 0 -560z m1068 554 c51 -14 52 -22 52 -589 l0 -525
-480 0 -480 0 0 560 0 560 443 0 c243 0 452 -3 465 -6z m1200 -1280 c31 -9 52
-53 52 -109 l0 -45 -2240 0 -2240 0 0 53 c0 53 18 89 50 100 21 8 4350 8 4378
1z"/>
<path d="M1695 4711 c-72 -21 -146 -96 -164 -166 -24 -96 -6 -160 64 -231 44
-44 60 -53 111 -64 96 -19 122 -34 129 -74 13 -68 -50 -114 -113 -82 -23 12
-32 26 -42 65 -16 67 -60 96 -115 75 -19 -8 -45 -55 -45 -85 0 -72 67 -172
138 -206 51 -24 155 -24 204 1 145 71 182 269 71 380 -46 45 -80 62 -158 76
-73 13 -98 38 -91 90 7 46 41 72 85 66 44 -7 50 -13 71 -78 19 -60 51 -84 100
-73 84 18 75 157 -16 248 -53 52 -156 79 -229 58z"/>
<path d="M2122 4714 c-7 -3 -19 -19 -27 -34 -20 -39 -22 -681 -2 -719 14 -28
57 -46 92 -37 43 11 55 52 55 191 l0 125 80 0 80 0 0 -122 c0 -68 3 -133 6
-146 9 -30 58 -55 94 -47 59 13 60 21 60 392 0 248 -4 344 -13 362 -14 28 -57
46 -92 37 -43 -11 -55 -52 -55 -191 l0 -125 -79 0 -79 0 -4 140 c-2 110 -6
143 -19 155 -16 17 -75 28 -97 19z"/>
<path d="M2815 4713 c-38 -9 -100 -55 -126 -92 -45 -63 -50 -92 -48 -311 1
-232 7 -257 75 -323 40 -39 111 -67 169 -67 83 0 172 58 212 139 25 51 32 415
9 494 -18 61 -76 126 -134 149 -38 14 -121 20 -157 11z m125 -179 c12 -12 16
-52 18 -209 3 -184 2 -195 -17 -214 -42 -42 -113 -34 -131 14 -15 40 -13 378
3 397 31 40 93 46 127 12z"/>
<path d="M3242 4714 c-7 -3 -19 -19 -27 -34 -22 -43 -22 -677 0 -720 29 -55
123 -46 139 13 3 12 6 77 6 145 l0 122 58 0 c106 0 172 35 228 120 25 38 29
53 29 114 0 80 -16 123 -65 172 -56 58 -101 72 -235 72 -66 1 -126 -2 -133 -4z
m231 -163 c35 -14 53 -63 37 -101 -16 -40 -37 -50 -99 -50 l-51 0 0 80 0 80
44 0 c25 0 56 -4 69 -9z"/>
<path d="M2282 1273 c-36 -14 -55 -127 -32 -188 18 -48 89 -56 130 -15 15 15
20 33 20 78 0 31 -3 67 -6 80 -10 36 -72 61 -112 45z"/>
<path d="M2765 1269 c-35 -20 -45 -42 -45 -100 0 -74 13 -107 47 -120 34 -13
67 -5 94 22 18 18 21 31 17 95 -2 48 -9 79 -18 89 -21 20 -71 28 -95 14z"/>
</g>
</svg>
